<?xml version="1.0" encoding="UTF-8"?>
<svg id="Layer_2" data-name="Layer 2" xmlns="http://www.w3.org/2000/svg" viewBox="0 0 65.15 45.32">
  <defs>
    <style>
      .cls-1 {
        fill: #fff;
        fill-rule: evenodd;
      }
    </style>
  </defs>
  <g id="Layer_1-2" data-name="Layer 1">
    <path class="cls-1" d="M48.67,0h16.48c-1.73,6.43-3.45,12.87-5.2,19.3-1.22,4.48-2.43,8.96-3.75,13.41-.58,1.94-1.15,3.87-1.91,5.76-.61,1.51-1.29,2.86-2.54,3.99-.94.84-1.96,1.37-3.15,1.74-1.53.48-3.08.66-4.66.79-2.27.19-4.55.23-6.83.27-5.24.08-14.76.07-19.99.05-1.88,0-3.77-.02-5.65-.05-1.36-.02-2.73-.06-4.09-.14-.91-.06-1.81-.13-2.71-.3-.61-.11-1.2-.26-1.77-.51C1.02,43.47.06,41.82,0,39.82c-.03-1.15.17-2.24.4-3.35.33-1.57.73-3.12,1.14-4.68.77-2.97,2.17-8.44,3.27-11.32.86-2.26,1.99-4.51,4.15-5.93,1.2-.8,2.47-1.22,3.87-1.5,1.03-.21,2.07-.32,3.12-.4,1.76-.13,3.52-.17,5.28-.2,2.5-.04,5-.05,7.51-.06h6.24s6.24,0,6.24,0l-2.22,8.24c-3.71,0-7.42-.01-11.13.01-1.08,0-2.16,0-3.25.07-.38.02-.76.05-1.13.18-.49.17-.73.48-.94.92-.31.65-.5,1.33-.7,2.01-.31,1.04-.59,2.09-.87,3.13-.44,1.61-.87,3.22-1.29,4.84-.15.6-.3,1.2-.43,1.8-.09.42-.17.85-.21,1.28-.04.47-.06,1.04.23,1.48.29.45.78.55,1.24.62.52.08,1.04.09,1.56.11.85.03,1.71.03,2.56.03,2.34.01,4.67.01,7.01,0,1.08,0,2.15-.01,3.23-.06.74-.03,1.47-.06,2.2-.23.55-.13.99-.35,1.36-.8.25-.31.42-.65.57-1.01.38-.9.64-1.82.91-2.75,1.05-3.56,2-7.14,2.97-10.72l2.9-10.75,2.88-10.75h16.48-16.48Z"/>
  </g>
</svg>