<?xml version="1.0" encoding="UTF-8"?>
<svg id="Layer_2" data-name="Layer 2" xmlns="http://www.w3.org/2000/svg" viewBox="0 0 49.9 48.41">
  <defs>
    <style>
      .cls-1 {
        fill: #fff;
        fill-rule: evenodd;
      }
    </style>
  </defs>
  <g id="Layer_1-2" data-name="Layer 1">
    <path class="cls-1" d="M49.9,0c-1.78,6.62-3.55,13.24-5.29,19.87-.87,3.31-1.72,6.63-2.72,9.91-.97,3.19-2.16,6.59-3.9,9.48-1.81,3.02-4.16,5.38-7.41,6.89-1.3.6-2.63,1.02-4.03,1.31-1.98.42-3.97.59-5.99.71-4.99.28-15.57.24-20.56.24l3.06-11.33c2.31,0,4.63,0,6.94-.06,2.23-.06,4.69-.18,6.89-.7,2.41-.57,4.22-1.55,5.82-3.51,1.45-1.78,2.42-4.01,3.22-6.11,1.46-3.83,2.95-9.33,4-13.27C31.12,8.96,32.27,4.48,33.42,0h16.48Z"/>
  </g>
</svg>