<?xml version="1.0" encoding="UTF-8"?>
<svg id="Layer_2" data-name="Layer 2" xmlns="http://www.w3.org/2000/svg" xmlns:xlink="http://www.w3.org/1999/xlink" viewBox="0 0 198.04 17.74">
  <defs>
    <style>
      .cls-1 {
        fill: #fff;
      }

      .cls-2 {
        fill: none;
      }

      .cls-3 {
        clip-path: url(#clippath-1);
      }

      .cls-4 {
        clip-path: url(#clippath-2);
      }

      .cls-5 {
        clip-path: url(#clippath);
      }
    </style>
    <clipPath id="clippath">
      <path class="cls-2" d="M93.52,0v.24l-3.95,5.01c-.23.29-.48.57-.76.83-.17.17-.27.27-.31.3h0s.22.03.22.03c1.39.17,2.55.67,3.46,1.49l.14.13c1.02.99,1.54,2.26,1.54,3.81,0,1.82-.63,3.27-1.89,4.35-1.21,1.03-2.78,1.55-4.71,1.55-1.53,0-2.9-.36-4.13-1.08-1.18-.69-2.03-1.6-2.57-2.73l2.35-1.21c.41.75.94,1.35,1.59,1.78.75.51,1.63.77,2.64.77,2.6,0,3.9-1.18,3.9-3.53s-1.41-3.44-4.22-3.44c-.52,0-1.03.05-1.54.14-.4.07-.74.17-1.02.28l-.13-.24,4.11-5.2c.15-.19.35-.41.6-.65l.32-.32-.49.05c-.37.03-.69.05-.96.05h-5.58V0h11.39Z"/>
    </clipPath>
    <clipPath id="clippath-1">
      <path class="cls-2" d="M66.62,0c3.12,0,5.46,1.14,7.02,3.43l-2.09,1.48c-1.08-1.66-2.73-2.49-4.93-2.49-1.81,0-3.3.61-4.47,1.83-1.17,1.22-1.75,2.76-1.75,4.61s.58,3.38,1.75,4.6c1.18,1.24,2.67,1.86,4.47,1.86,1.17,0,2.19-.25,3.06-.75.81-.46,1.52-1.11,2.12-1.98l2.09,1.44c-1.63,2.46-4.05,3.69-7.27,3.69-2.53,0-4.65-.83-6.38-2.49-1.76-1.7-2.63-3.83-2.63-6.39s.88-4.67,2.63-6.36c1.72-1.67,3.85-2.5,6.38-2.5ZM36.42.2l3.96,9.3c.22.47.46,1.13.72,1.96.23.71.34,1.09.34,1.12,0-.05.1-.41.3-1.09.26-.84.5-1.5.73-1.99L46.36.2h2.66l-7.49,17.49h-.34L33.51.2h2.91ZM.29.02l8.38,9.67L16.99.02h.28v17.49h-2.61v-8.99c0-.39.02-.92.05-1.58l.05-.89-.54.77c-.4.56-.74.99-1.02,1.29l-4.42,5.24h-.3l-4.41-5.24c-.28-.31-.6-.73-.98-1.27l-.57-.79.05.89c.03.66.05,1.19.05,1.58v8.99H0V.02h.29ZM27.58.02l7.69,17.49h-2.83l-1.3-3.16h-7.46l-1.29,3.16h-2.63L27.27.02h.32ZM54.27.2v17.31h-2.71V.2h2.71ZM27.37,4.86l-.28.92c-.21.68-.4,1.22-.57,1.63l-1.91,4.71h5.54l-1.9-4.71c-.18-.41-.37-.93-.57-1.58-.19-.55-.3-.87-.31-.97Z"/>
    </clipPath>
    <clipPath id="clippath-2">
      <path class="cls-2" d="M111.56,0c3.07,0,5.35,1.1,6.86,3.29l-.79.58c-1.37-1.95-3.39-2.92-6.06-2.92-2.22,0-4.08.75-5.56,2.27-1.48,1.5-2.22,3.39-2.22,5.66s.74,4.15,2.22,5.66c1.48,1.51,3.33,2.27,5.56,2.27,2.74,0,4.84-1.03,6.28-3.09l.78.56c-1.59,2.31-3.94,3.46-7.06,3.46-2.49,0-4.57-.82-6.25-2.45-1.73-1.68-2.59-3.82-2.59-6.41s.86-4.74,2.59-6.42c1.68-1.63,3.76-2.45,6.25-2.45ZM154.8,0c1.07,0,1.99.25,2.78.76.63.41,1.18.99,1.65,1.74l-.82.54c-.41-.66-.86-1.16-1.35-1.49-.63-.41-1.38-.62-2.26-.62-2.15,0-3.23.98-3.23,2.92,0,1.45,1,2.64,3,3.57l1.6.73c2.76,1.26,4.14,2.98,4.14,5.15,0,1.34-.48,2.41-1.44,3.24-.94.8-2.17,1.19-3.67,1.19s-2.77-.36-3.81-1.08c-.84-.58-1.5-1.37-1.98-2.38l.89-.44c.48.9,1.05,1.59,1.7,2.07.85.61,1.91.92,3.17.92,1.17,0,2.13-.32,2.9-.95.81-.65,1.22-1.51,1.22-2.58,0-1.73-1.18-3.14-3.54-4.23l-1.6-.73c-2.41-1.12-3.61-2.61-3.61-4.47,0-1.16.42-2.11,1.25-2.84.79-.69,1.79-1.03,2.99-1.03ZM168.12,0c1.07,0,1.99.25,2.78.76.63.41,1.18.99,1.65,1.74l-.82.54c-.41-.66-.86-1.16-1.35-1.49-.63-.41-1.38-.62-2.26-.62-2.15,0-3.22.98-3.22,2.92,0,1.45,1,2.64,3,3.57l1.6.73c2.76,1.26,4.14,2.98,4.14,5.15,0,1.34-.48,2.41-1.44,3.24-.94.8-2.17,1.19-3.67,1.19s-2.77-.36-3.81-1.08c-.83-.58-1.5-1.37-1.98-2.38l.89-.44c.48.9,1.05,1.59,1.7,2.07.85.61,1.91.92,3.17.92,1.17,0,2.13-.32,2.9-.95.81-.65,1.22-1.51,1.22-2.58,0-1.73-1.18-3.14-3.53-4.23l-1.6-.73c-2.41-1.12-3.61-2.61-3.61-4.47,0-1.16.42-2.11,1.25-2.84.79-.69,1.79-1.03,2.99-1.03ZM190.99,0c3.07,0,5.35,1.1,6.86,3.29l-.79.58c-1.37-1.95-3.39-2.92-6.07-2.92-2.22,0-4.08.75-5.56,2.27-1.48,1.5-2.22,3.39-2.22,5.66s.74,4.15,2.22,5.66c1.48,1.51,3.33,2.27,5.56,2.27,2.75,0,4.84-1.03,6.28-3.09l.78.56c-1.59,2.31-3.94,3.46-7.06,3.46-2.49,0-4.57-.82-6.25-2.45-1.73-1.68-2.59-3.82-2.59-6.41s.86-4.74,2.59-6.42c1.68-1.63,3.76-2.45,6.25-2.45ZM122.89.2v16.42h8.31v.92h-9.35V.2h1.04ZM140.77,0l7.01,17.54h-1.07l-1.85-4.64h-8.52l-1.82,4.64h-1.04l6.98-17.54h.31ZM178.36.2v17.34h-1.04V.2h1.04ZM140.6,1.89l-.17.58c-.12.4-.23.72-.32.96l-3.39,8.55h7.78l-3.39-8.51c-.1-.26-.21-.59-.33-1-.02-.07-.04-.15-.06-.22l-.11-.36Z"/>
    </clipPath>
  </defs>
  <g id="Layer_1-2" data-name="Layer 1">
    <g>
      <g class="cls-5">
        <path class="cls-1" d="M80.55,0h13.3v17.74h-13.3V0Z"/>
      </g>
      <g class="cls-3">
        <path class="cls-1" d="M0,0h73.9v17.74H0V0Z"/>
      </g>
      <g class="cls-4">
        <path class="cls-1" d="M102.72,0h95.33v17.74h-95.33V0Z"/>
      </g>
    </g>
  </g>
</svg>